<svg xmlns="http://www.w3.org/2000/svg" xmlns:xlink="http://www.w3.org/1999/xlink" viewBox="0 0 68.24 80"><defs><clipPath id="clip-path"><circle cx="34.12" cy="24.88" r="12.48" fill="none" stroke="#683b13" stroke-miterlimit="10"/></clipPath></defs><title>icon_registro</title><g id="Capa_2" data-name="Capa 2"><g id="Capa_1-2" data-name="Capa 1"><path d="M66.24,5V75a3,3,0,0,1-3,3H5a3,3,0,0,1-3-3V20a3,3,0,0,1,.88-2.12l15-15A3,3,0,0,1,20,2H63.24A3,3,0,0,1,66.24,5Z" fill="none" stroke="#683b13" stroke-miterlimit="10" stroke-width="4"/><path d="M13.61,49.3l4.75,4.77a.94.94,0,0,0,1.33,0l8.13-7.9" fill="none" stroke="#683b13" stroke-miterlimit="10" stroke-width="4"/><line x1="16.26" y1="63.12" x2="20.99" y2="63.12" fill="none" stroke="#683b13" stroke-miterlimit="10" stroke-width="4"/><line x1="32.37" y1="63.12" x2="56.05" y2="63.12" fill="none" stroke="#683b13" stroke-miterlimit="10" stroke-width="4"/><line x1="32.37" y1="50.53" x2="56.05" y2="50.53" fill="none" stroke="#683b13" stroke-miterlimit="10" stroke-width="4"/><g clip-path="url(#clip-path)"><path d="M40.36,32.52v5.41a2,2,0,0,1-2,2h0a.63.63,0,0,0-.63.62v5.81A1.51,1.51,0,0,1,36.2,47.9H32.05a1.52,1.52,0,0,1-1.52-1.51V40.58A.63.63,0,0,0,29.9,40h0a2,2,0,0,1-2-2V32.52a5,5,0,0,1,5.05-5.05h2.38A5,5,0,0,1,40.36,32.52Z" fill="none" stroke="#683b13" stroke-miterlimit="10" stroke-width="3"/><path d="M34.12,27.47A4.86,4.86,0,1,1,39,22.61,4.87,4.87,0,0,1,34.12,27.47Z" fill="none" stroke="#683b13" stroke-miterlimit="10" stroke-width="3"/></g><circle cx="34.12" cy="24.88" r="12.48" fill="none" stroke="#683b13" stroke-miterlimit="10"/><circle cx="34.12" cy="24.88" r="12.48" fill="none" stroke="#683b13" stroke-miterlimit="10" stroke-width="3"/></g></g></svg>