<svg xmlns="http://www.w3.org/2000/svg" viewBox="0 0 85.6 85"><title>icon_tematicas</title><g id="Capa_2" data-name="Capa 2"><g id="Capa_1-2" data-name="Capa 1"><path d="M62,33.38c3.4-2.18,5-4.64,4.54-8.42a51,51,0,0,1,0-8A4.46,4.46,0,0,0,65,13.42C61,9.55,57.12,5.67,53.28,1.69A5.37,5.37,0,0,0,49,0C39.76.06,30.49,0,21.23,0c-5.38,0-7.85,2.48-7.86,7.84q0,15.9,0,31.8c0,9.09,0,18.18,0,27.26,0,4.12,2.39,7,6.15,7,13.63.09,27.25.06,40.88,0,3,0,5.75-2.34,5.85-5.25.23-6.79.07-13.59.07-20.57-3.18,2.07-4.89,4.43-4.46,8.23A78.94,78.94,0,0,1,62,65.93c0,3.1-.51,3.57-3.57,3.57q-18.43,0-36.88,0c-3.14,0-3.66-.55-3.66-3.77q0-28.61,0-57.2c0-3.53.39-3.9,4-3.91H42.73c5.57,0,5.57,0,5.61,5.44,0,.53,0,1.07,0,1.6a6.62,6.62,0,0,0,6.8,6.49,19.36,19.36,0,0,0,3.73,0c2.72-.43,3.27.77,3.13,3.24C61.81,25.26,62,29.16,62,33.38ZM.05,47.83C.05,57.9,0,68,.06,78c0,3.92,2.51,6.85,6.32,6.88q20.17.18,40.34,0a6.67,6.67,0,0,0,6.41-7.4c-.1-1.41-.91-1.43-1.77-1.24s-2.72-.93-2.7,1c0,2.86-1.61,3.12-3.81,3.11-12.12,0-24.23,0-36.34,0-3.71,0-4-.34-4-4.19V21.93c0-5.73,0-5.79,5.56-6.4,1.38-.15,1.42-.89,1.25-1.77s.9-2.62-1-2.8C5,10.44-.14,11.58,0,19,.19,28.59.05,38.21.05,47.83ZM85.6,25.38a2.44,2.44,0,0,0-.26-.59C83.58,23,81.82,21.26,80,19.54c-.54-.51-.94,0-1.33.41-.58.54-.57,1,0,1.54,1,.9,1.9,1.87,2.84,2.82.52.52,1,1,.23,1.74-.65.57-1.1.23-1.58-.25a33.29,33.29,0,0,1-2.44-2.46c-.94-1.19-1.59-.92-2.54,0Q61.11,37.58,46.93,51.71c-1.48,1.48-2.32,2.94-.13,4.62.55.42,2,1,1.08,1.94-.68.7-1.93,1.87-3.18.37-.3-.36-.77-.91-1.26-.27-.3.4-.68,1.11-.52,1.43.57,1.17,1.33,2.73,2.88,2,2.65-1.2,5.56-2,7.7-4.13Q69,42.22,84.44,26.72C84.87,26.29,85.23,25.8,85.6,25.38ZM39.88,35.27h0c-4.09,0-8.18,0-12.26,0-.89,0-1.95,0-1.94,1.27s1,1.08,1.77,1.08c8.26,0,16.52.05,24.78,0,.81,0,2,.14,1.92-1.23s-1.15-1.14-2-1.15C48.05,35.26,44,35.27,39.88,35.27Zm.06-10.83v0c-4.08,0-8.16,0-12.25,0-.82,0-2-.3-2,1.08s1.08,1.17,1.94,1.18q12.26,0,24.51,0c.86,0,2,.17,2-1.14S53,24.46,52.2,24.46C48.11,24.43,44,24.44,39.94,24.44Zm.05,7.7c4,0,8,0,12,0,.87,0,2.18.42,2.17-1.14,0-1.34-1.17-1.1-2-1.11q-12.26,0-24.51,0c-.89,0-2-.09-1.93,1.21s1.21,1,2,1.05C31.82,32.16,35.91,32.14,40,32.14Z" fill="#fff"/><path d="M62,33.38c0-4.22-.15-8.12,0-12,.14-2.47-.41-3.67-3.13-3.24a19.36,19.36,0,0,1-3.73,0,6.62,6.62,0,0,1-6.8-6.49c0-.53,0-1.07,0-1.6,0-5.44,0-5.44-5.61-5.44H21.88c-3.65,0-4,.38-4,3.91q0,28.59,0,57.2c0,3.22.52,3.77,3.66,3.77q18.45,0,36.88,0c3.06,0,3.53-.47,3.57-3.57a78.94,78.94,0,0,0-.07-9.61c-.43-3.8,1.28-6.16,4.46-8.23,0,7,.16,13.78-.07,20.57-.1,2.91-2.86,5.23-5.85,5.25-13.63.08-27.25.11-40.88,0-3.76,0-6.13-2.88-6.15-7-.05-9.08,0-18.17,0-27.26q0-15.9,0-31.8C13.38,2.51,15.85,0,21.23,0,30.49,0,39.76.06,49,0a5.37,5.37,0,0,1,4.26,1.69C57.12,5.67,61,9.55,65,13.42A4.46,4.46,0,0,1,66.47,17a51,51,0,0,0,0,8C67,28.74,65.36,31.2,62,33.38Z" fill="#683b11"/><path d="M.05,47.83C.05,38.21.19,28.59,0,19c-.14-7.39,5-8.53,10.33-8,1.86.18.77,1.82,1,2.8s.13,1.62-1.25,1.77c-5.57.61-5.56.67-5.56,6.4V76.18c0,3.85.32,4.19,4,4.19,12.11,0,24.22,0,36.34,0,2.2,0,3.82-.25,3.81-3.11,0-1.94,1.75-.81,2.7-1s1.67-.17,1.77,1.24a6.67,6.67,0,0,1-6.41,7.4q-20.16.18-40.34,0C2.57,84.88.08,82,.06,78,0,68,.05,57.9.05,47.83Z" fill="#683b11"/><path d="M85.6,25.38c-.37.42-.73.91-1.16,1.34Q69,42.22,53.5,57.7c-2.14,2.14-5,2.93-7.7,4.13-1.55.7-2.31-.86-2.88-2-.16-.32.22-1,.52-1.43.49-.64,1-.09,1.26.27,1.25,1.5,2.5.33,3.18-.37.89-.9-.53-1.52-1.08-1.94-2.19-1.68-1.35-3.14.13-4.62q14.15-14.16,28.3-28.34c1-.95,1.6-1.22,2.54,0a33.29,33.29,0,0,0,2.44,2.46c.48.48.93.82,1.58.25.82-.72.29-1.22-.23-1.74-.94-.95-1.85-1.92-2.84-2.82-.6-.56-.61-1,0-1.54.39-.37.79-.92,1.33-.41,1.8,1.72,3.56,3.49,5.32,5.25A2.44,2.44,0,0,1,85.6,25.38Z" fill="#683b11"/><path d="M39.88,35.27c4.08,0,8.17,0,12.25,0,.87,0,1.95-.13,2,1.15S53,37.65,52.23,37.65c-8.26,0-16.52,0-24.78,0-.81,0-1.76,0-1.77-1.08s1.05-1.27,1.94-1.27c4.08,0,8.17,0,12.26,0Z" fill="#683b11"/><path d="M39.94,24.44c4.09,0,8.17,0,12.26,0,.82,0,2-.22,1.95,1.14s-1.13,1.14-2,1.14q-12.25,0-24.51,0c-.86,0-2,.17-1.94-1.18s1.16-1.07,2-1.08c4.09,0,8.17,0,12.25,0Z" fill="#683b11"/><path d="M40,32.14c-4.08,0-8.17,0-12.25,0-.82,0-2,.3-2-1.05s1-1.21,1.93-1.21q12.26,0,24.51,0c.83,0,2-.23,2,1.11,0,1.56-1.3,1.13-2.17,1.14C48,32.16,44,32.14,40,32.14Z" fill="#683b11"/></g></g></svg>